<svg width="24" height="24" viewBox="0 0 24 24" fill="none" xmlns="http://www.w3.org/2000/svg">
<path fill-rule="evenodd" clip-rule="evenodd" d="M12 3.81818C7.48131 3.81818 3.81818 7.48131 3.81818 12C3.81818 16.5187 7.48131 20.1818 12 20.1818C16.5187 20.1818 20.1818 16.5187 20.1818 12C20.1818 7.48131 16.5187 3.81818 12 3.81818ZM2 12C2 6.47715 6.47715 2 12 2C17.5228 2 22 6.47715 22 12C22 17.5228 17.5228 22 12 22C6.47715 22 2 17.5228 2 12Z" fill="#788490"/>
<path fill-rule="evenodd" clip-rule="evenodd" d="M9.08805 16.1856C8.78608 16.5839 8.21858 16.6639 7.81818 16.3636C7.41652 16.0623 7.33512 15.4925 7.63636 15.0909L8.36364 15.6363C7.63636 15.0909 7.63636 15.0909 7.63636 15.0909L7.63728 15.0896L7.63833 15.0882L7.64082 15.085L7.64737 15.0764L7.66674 15.0516C7.68241 15.0318 7.70364 15.0056 7.73033 14.9738C7.78364 14.9102 7.85909 14.8242 7.95586 14.7232C8.14866 14.522 8.43039 14.2571 8.79484 13.992C9.52024 13.4644 10.6132 12.909 12 12.909C13.3868 12.909 14.4798 13.4644 15.2052 13.992C15.5696 14.2571 15.8513 14.522 16.0441 14.7232C16.1409 14.8242 16.2164 14.9102 16.2697 14.9738C16.2964 15.0056 16.3176 15.0318 16.3333 15.0516L16.3526 15.0764L16.3592 15.085L16.3617 15.0882L16.3627 15.0896C16.3627 15.0896 16.3636 15.0909 15.6364 15.6363L16.3636 15.0909C16.6649 15.4925 16.5835 16.0623 16.1818 16.3636C15.7814 16.6639 15.2139 16.5839 14.9119 16.1856L14.9077 16.1802C14.9023 16.1733 14.892 16.1605 14.877 16.1426C14.8469 16.1067 14.798 16.0507 14.7314 15.9812C14.5975 15.8415 14.3963 15.6519 14.1358 15.4624C13.6112 15.0809 12.8859 14.7272 12 14.7272C11.1141 14.7272 10.3888 15.0809 9.86425 15.4624C9.6037 15.6519 9.40248 15.8415 9.26857 15.9812C9.20199 16.0507 9.15315 16.1067 9.12301 16.1426C9.10797 16.1605 9.09769 16.1733 9.09228 16.1802L9.08805 16.1856Z" fill="#788490"/>
<path fill-rule="evenodd" clip-rule="evenodd" d="M8.36364 9.27273C8.36364 8.77065 8.77065 8.36364 9.27273 8.36364H9.28182C9.7839 8.36364 10.1909 8.77065 10.1909 9.27273C10.1909 9.7748 9.7839 10.1818 9.28182 10.1818H9.27273C8.77065 10.1818 8.36364 9.7748 8.36364 9.27273Z" fill="#788490"/>
<path fill-rule="evenodd" clip-rule="evenodd" d="M13.8182 9.27273C13.8182 8.77065 14.2252 8.36364 14.7273 8.36364H14.7364C15.2384 8.36364 15.6455 8.77065 15.6455 9.27273C15.6455 9.7748 15.2384 10.1818 14.7364 10.1818H14.7273C14.2252 10.1818 13.8182 9.7748 13.8182 9.27273Z" fill="#788490"/>
</svg>
