<svg width="16" height="16" viewBox="0 0 16 16" fill="none" xmlns="http://www.w3.org/2000/svg">
<path d="M12.6667 5.33337V7.33337H3.88666L5.80666 5.41337C5.93131 5.28872 6.00134 5.11965 6.00134 4.94337C6.00134 4.76708 5.93131 4.59802 5.80666 4.47337C5.68201 4.34872 5.51294 4.27869 5.33666 4.27869C5.16037 4.27869 4.99131 4.34872 4.86666 4.47337L1.80666 7.53337C1.74485 7.59504 1.69582 7.6683 1.66237 7.74895C1.62891 7.8296 1.61169 7.91605 1.61169 8.00337C1.61169 8.09068 1.62891 8.17713 1.66237 8.25778C1.69582 8.33843 1.74485 8.41169 1.80666 8.47337L4.86666 11.5334C4.92838 11.5951 5.00165 11.644 5.0823 11.6775C5.16294 11.7109 5.24937 11.728 5.33666 11.728C5.42394 11.728 5.51038 11.7109 5.59102 11.6775C5.67166 11.644 5.74494 11.5951 5.80666 11.5334C5.86838 11.4716 5.91734 11.3984 5.95074 11.3177C5.98414 11.2371 6.00134 11.1507 6.00134 11.0634C6.00134 10.9761 5.98414 10.8896 5.95074 10.809C5.91734 10.7284 5.86838 10.6551 5.80666 10.5934L3.88666 8.6667H13.3333C13.7 8.6667 14 8.3667 14 8.00003V5.33337C14 4.9667 13.7 4.6667 13.3333 4.6667C12.9667 4.6667 12.6667 4.9667 12.6667 5.33337Z" fill="#788490"/>
</svg>
