<svg width="24" height="24" viewBox="0 0 24 24" fill="none" xmlns="http://www.w3.org/2000/svg">
<path fill-rule="evenodd" clip-rule="evenodd" d="M12 3.81818C7.48131 3.81818 3.81818 7.48131 3.81818 12C3.81818 16.5187 7.48131 20.1818 12 20.1818C16.5187 20.1818 20.1818 16.5187 20.1818 12C20.1818 7.48131 16.5187 3.81818 12 3.81818ZM2 12C2 6.47715 6.47715 2 12 2C17.5228 2 22 6.47715 22 12C22 17.5228 17.5228 22 12 22C6.47715 22 2 17.5228 2 12Z" fill="#788490"/>
<path fill-rule="evenodd" clip-rule="evenodd" d="M9.08805 13.2689C8.78607 12.8706 8.21858 12.7906 7.81818 13.0909C7.41652 13.3922 7.33512 13.962 7.63636 14.3636L8.36364 13.8182C7.63636 14.3636 7.63614 14.3633 7.63636 14.3636L7.63728 14.3649L7.63833 14.3663L7.64082 14.3695L7.64737 14.3781L7.66674 14.4029C7.68241 14.4227 7.70364 14.4489 7.73033 14.4807C7.78364 14.5443 7.85909 14.6303 7.95586 14.7313C8.14866 14.9325 8.43039 15.1974 8.79484 15.4625C9.52024 15.9901 10.6132 16.5455 12 16.5455C13.3868 16.5455 14.4798 15.9901 15.2052 15.4625C15.5696 15.1974 15.8513 14.9325 16.0441 14.7313C16.1409 14.6303 16.2164 14.5443 16.2697 14.4807C16.2964 14.4489 16.3176 14.4227 16.3333 14.4029L16.3526 14.3781L16.3592 14.3695L16.3617 14.3663L16.3627 14.3649C16.3629 14.3646 16.3636 14.3636 15.6364 13.8182L16.3636 14.3636C16.6649 13.962 16.5835 13.3922 16.1818 13.0909C15.7814 12.7906 15.2139 12.8706 14.9119 13.2689L14.9077 13.2743C14.9023 13.2812 14.892 13.294 14.877 13.3119C14.8469 13.3478 14.798 13.4038 14.7314 13.4733C14.5975 13.613 14.3963 13.8026 14.1358 13.9921C13.6112 14.3736 12.8859 14.7273 12 14.7273C11.1141 14.7273 10.3888 14.3736 9.86425 13.9921C9.6037 13.8026 9.40248 13.613 9.26857 13.4733C9.20199 13.4038 9.15315 13.3478 9.12301 13.3119C9.10797 13.294 9.09769 13.2812 9.09228 13.2743L9.08805 13.2689Z" fill="#788490"/>
<path fill-rule="evenodd" clip-rule="evenodd" d="M8.36364 9.27273C8.36364 8.77065 8.77065 8.36364 9.27273 8.36364H9.28182C9.7839 8.36364 10.1909 8.77065 10.1909 9.27273C10.1909 9.7748 9.7839 10.1818 9.28182 10.1818H9.27273C8.77065 10.1818 8.36364 9.7748 8.36364 9.27273Z" fill="#788490"/>
<path fill-rule="evenodd" clip-rule="evenodd" d="M13.8182 9.27273C13.8182 8.77065 14.2252 8.36364 14.7273 8.36364H14.7364C15.2384 8.36364 15.6455 8.77065 15.6455 9.27273C15.6455 9.7748 15.2384 10.1818 14.7364 10.1818H14.7273C14.2252 10.1818 13.8182 9.7748 13.8182 9.27273Z" fill="#788490"/>
</svg>
