<svg width="24" height="24" viewBox="0 0 24 24" fill="none" xmlns="http://www.w3.org/2000/svg">
<path d="M12 22.75C6.07 22.75 1.25 17.93 1.25 12C1.25 6.07 6.07 1.25 12 1.25C17.93 1.25 22.75 6.07 22.75 12C22.75 17.93 17.93 22.75 12 22.75ZM12 2.75C6.9 2.75 2.75 6.9 2.75 12C2.75 17.1 6.9 21.25 12 21.25C17.1 21.25 21.25 17.1 21.25 12C21.25 6.9 17.1 2.75 12 2.75Z" fill="#788490"/>
<path d="M10.58 15.582C10.3812 15.5818 10.1905 15.5027 10.05 15.362L7.22 12.532C7.08052 12.3909 7.0023 12.2004 7.0023 12.002C7.0023 11.8036 7.08052 11.6131 7.22 11.472C7.51 11.182 7.99 11.182 8.28 11.472L10.58 13.772L15.72 8.632C16.01 8.342 16.49 8.342 16.78 8.632C17.07 8.922 17.07 9.402 16.78 9.692L11.11 15.362C10.9695 15.5027 10.7788 15.5818 10.58 15.582Z" fill="#788490"/>
</svg>
