<svg width="24" height="24" viewBox="0 0 24 24" fill="none" xmlns="http://www.w3.org/2000/svg">
<path d="M12.2 14L11.275 14.925C11.0917 15.1083 11 15.3417 11 15.625C11 15.9083 11.0917 16.1417 11.275 16.325C11.4583 16.5083 11.6917 16.6 11.975 16.6C12.2583 16.6 12.4917 16.5083 12.675 16.325L15.3 13.7C15.4833 13.5167 15.575 13.2833 15.575 13C15.575 12.7167 15.4833 12.4833 15.3 12.3L12.675 9.675C12.4917 9.49167 12.2583 9.4 11.975 9.4C11.6917 9.4 11.4583 9.49167 11.275 9.675C11.0917 9.85833 11 10.0917 11 10.375C11 10.6583 11.0917 10.8917 11.275 11.075L12.2 12H9C8.71667 12 8.47933 12.0957 8.288 12.287C8.096 12.479 8 12.7167 8 13C8 13.2833 8.096 13.5207 8.288 13.712C8.47933 13.904 8.71667 14 9 14H12.2ZM4 20C3.45 20 2.97933 19.8043 2.588 19.413C2.196 19.021 2 18.55 2 18V6C2 5.45 2.196 4.97933 2.588 4.588C2.97933 4.196 3.45 4 4 4H9.175C9.44167 4 9.696 4.05 9.938 4.15C10.1793 4.25 10.3917 4.39167 10.575 4.575L12 6H20C20.55 6 21.021 6.196 21.413 6.588C21.8043 6.97933 22 7.45 22 8V18C22 18.55 21.8043 19.021 21.413 19.413C21.021 19.8043 20.55 20 20 20H4Z" fill="#788490"/>
</svg>
