<svg width="24" height="24" viewBox="0 0 24 24" fill="none" xmlns="http://www.w3.org/2000/svg">
<path d="M16.3 12.3C16.1 12.1 16 11.8624 16 11.587C16 11.3124 16.0917 11.0834 16.275 10.9L18.175 9.00005H4C3.71667 9.00005 3.47934 8.90405 3.288 8.71205C3.096 8.52072 3 8.28338 3 8.00005C3 7.71672 3.096 7.47905 3.288 7.28705C3.47934 7.09572 3.71667 7.00005 4 7.00005H18.175L16.275 5.10005C16.0917 4.91672 16 4.68738 16 4.41205C16 4.13738 16.1 3.90005 16.3 3.70005C16.4833 3.51672 16.7167 3.42505 17 3.42505C17.2833 3.42505 17.5167 3.51672 17.7 3.70005L21.3 7.30005C21.4 7.40005 21.471 7.50838 21.513 7.62505C21.5543 7.74172 21.575 7.86672 21.575 8.00005C21.575 8.13338 21.5543 8.25838 21.513 8.37505C21.471 8.49172 21.4 8.60005 21.3 8.70005L17.7 12.3C17.5 12.5 17.2627 12.5957 16.988 12.587C16.7127 12.579 16.4833 12.4834 16.3 12.3ZM6.3 20.3L2.7 16.7C2.6 16.6 2.52934 16.4917 2.488 16.375C2.446 16.2584 2.425 16.1334 2.425 16C2.425 15.8667 2.446 15.7417 2.488 15.625C2.52934 15.5084 2.6 15.4 2.7 15.3L6.3 11.7C6.48334 11.5167 6.71267 11.4207 6.988 11.412C7.26267 11.404 7.5 11.5 7.7 11.7C7.9 11.8834 8.004 12.1124 8.012 12.387C8.02067 12.6624 7.925 12.9 7.725 13.1L5.825 15H20C20.2833 15 20.5207 15.0957 20.712 15.287C20.904 15.479 21 15.7167 21 16C21 16.2834 20.904 16.5207 20.712 16.712C20.5207 16.904 20.2833 17 20 17H5.825L7.725 18.9C7.90834 19.0834 8.004 19.3167 8.012 19.6C8.02067 19.8834 7.925 20.1167 7.725 20.3C7.54167 20.5 7.30834 20.6 7.025 20.6C6.74167 20.6 6.5 20.5 6.3 20.3Z" fill="#788490"/>
</svg>
