<svg width="24" height="24" viewBox="0 0 24 24" fill="none" xmlns="http://www.w3.org/2000/svg">
<path d="M15.375 19.25C15.025 19.4167 14.7083 19.404 14.425 19.212C14.1417 19.0207 14 18.7083 14 18.275C14 18.1083 14.0543 17.946 14.163 17.788C14.271 17.6293 14.4083 17.5083 14.575 17.425C15.625 16.925 16.4583 16.1833 17.075 15.2C17.6917 14.2167 18 13.1333 18 11.95C18 11.2 17.8583 10.4707 17.575 9.762C17.2917 9.054 16.85 8.4 16.25 7.8L16 7.55V9C16 9.28333 15.9043 9.52067 15.713 9.712C15.521 9.904 15.2833 10 15 10C14.7167 10 14.4793 9.904 14.288 9.712C14.096 9.52067 14 9.28333 14 9V5C14 4.71667 14.096 4.479 14.288 4.287C14.4793 4.09567 14.7167 4 15 4H19C19.2833 4 19.5207 4.09567 19.712 4.287C19.904 4.479 20 4.71667 20 5C20 5.28333 19.904 5.521 19.712 5.713C19.5207 5.90433 19.2833 6 19 6H17.25L17.65 6.35C18.4667 7.16667 19.0627 8.054 19.438 9.012C19.8127 9.97067 20 10.95 20 11.95C20 13.55 19.5833 15.004 18.75 16.312C17.9167 17.6207 16.7917 18.6 15.375 19.25ZM5 20C4.71667 20 4.479 19.904 4.287 19.712C4.09567 19.5207 4 19.2833 4 19C4 18.7167 4.09567 18.4793 4.287 18.288C4.479 18.096 4.71667 18 5 18H6.75L6.35 17.65C5.53333 16.8333 4.93733 15.946 4.562 14.988C4.18733 14.0293 4 13.05 4 12.05C4 10.45 4.41667 8.99567 5.25 7.687C6.08333 6.379 7.20833 5.4 8.625 4.75C8.975 4.58333 9.29167 4.59567 9.575 4.787C9.85833 4.979 10 5.29167 10 5.725C10 5.89167 9.946 6.054 9.838 6.212C9.72933 6.37067 9.59167 6.49167 9.425 6.575C8.375 7.075 7.54167 7.81667 6.925 8.8C6.30833 9.78333 6 10.8667 6 12.05C6 12.8 6.14167 13.529 6.425 14.237C6.70833 14.9457 7.15 15.6 7.75 16.2L8 16.45V15C8 14.7167 8.096 14.479 8.288 14.287C8.47933 14.0957 8.71667 14 9 14C9.28333 14 9.521 14.0957 9.713 14.287C9.90433 14.479 10 14.7167 10 15V19C10 19.2833 9.90433 19.5207 9.713 19.712C9.521 19.904 9.28333 20 9 20H5Z" fill="#788490"/>
</svg>
