<svg width="24" height="24" viewBox="0 0 24 24" fill="none" xmlns="http://www.w3.org/2000/svg">
<path fill-rule="evenodd" clip-rule="evenodd" d="M3 7C3 6.56778 3.30996 6 3.69231 6H20.3077C20.69 6 21 6.56778 21 7C21 7.43222 20.69 8 20.3077 8H3.69231C3.30996 8 3 7.43222 3 7Z" fill="#788490"/>
<path fill-rule="evenodd" clip-rule="evenodd" d="M5.76923 12C5.76923 11.5678 6.11765 11 6.5 11H17.5769C17.9593 11 18.2308 11.5678 18.2308 12C18.2308 12.4322 17.9208 13 17.5385 13H6.46154C6.07919 13 5.76923 12.4322 5.76923 12Z" fill="#788490"/>
<path fill-rule="evenodd" clip-rule="evenodd" d="M9.5 17C9.5 16.5678 9.7715 16 10.1538 16H13.8462C14.2285 16 14.5 16.5678 14.5 17C14.5 17.4322 14.2285 18 13.8462 18H10.1538C9.7715 18 9.5 17.4322 9.5 17Z" fill="#788490"/>
</svg>
