<svg width="24" height="24" viewBox="0 0 24 24" fill="none" xmlns="http://www.w3.org/2000/svg">
<path d="M10 20H6C5.71667 20 5.479 19.9039 5.287 19.712C5.09567 19.5206 5 19.2833 5 19V12H3.3C3.06667 12 2.90833 11.8916 2.825 11.675C2.74167 11.4583 2.79167 11.275 2.975 11.125L11.325 3.59995C11.5083 3.41662 11.7333 3.32495 12 3.32495C12.2667 3.32495 12.4917 3.41662 12.675 3.59995L16 6.59995V4.99995C16 4.71662 16.096 4.47895 16.288 4.28695C16.4793 4.09562 16.7167 3.99995 17 3.99995H18C18.2833 3.99995 18.5207 4.09562 18.712 4.28695C18.904 4.47895 19 4.71662 19 4.99995V9.29995L21.025 11.125C21.2083 11.275 21.2583 11.4583 21.175 11.675C21.0917 11.8916 20.9333 12 20.7 12H19V19C19 19.2833 18.904 19.5206 18.712 19.712C18.5207 19.9039 18.2833 20 18 20H14V15C14 14.7166 13.9043 14.479 13.713 14.287C13.521 14.0956 13.2833 14 13 14H11C10.7167 14 10.4793 14.0956 10.288 14.287C10.096 14.479 10 14.7166 10 15V20ZM10 10.025H14C14 9.49162 13.8 9.05395 13.4 8.71195C13 8.37062 12.5333 8.19995 12 8.19995C11.4667 8.19995 11 8.37062 10.6 8.71195C10.2 9.05395 10 9.49162 10 10.025Z" fill="#788490"/>
</svg>
