<svg width="24" height="24" viewBox="0 0 24 24" fill="none" xmlns="http://www.w3.org/2000/svg">
<path d="M6.425 13.875L12 9.52502L17.575 13.875C17.6917 13.5084 17.779 13.1417 17.837 12.775C17.8957 12.4084 17.9417 12.0334 17.975 11.65L13.225 7.95002C12.8583 7.66669 12.45 7.52502 12 7.52502C11.55 7.52502 11.1417 7.66669 10.775 7.95002L6.025 11.65C6.05833 12.0334 6.104 12.4084 6.162 12.775C6.22067 13.1417 6.30833 13.5084 6.425 13.875ZM12 19.9C12.35 19.7834 12.6917 19.6417 13.025 19.475C13.3583 19.3084 13.6833 19.1167 14 18.9V16C14 15.7167 13.9043 15.479 13.713 15.287C13.521 15.0957 13.2833 15 13 15H11C10.7167 15 10.4793 15.0957 10.288 15.287C10.096 15.479 10 15.7167 10 16V18.9C10.3167 19.1167 10.6417 19.3084 10.975 19.475C11.3083 19.6417 11.65 19.7834 12 19.9ZM12 21.925H11.75C11.6667 21.925 11.5917 21.9084 11.525 21.875C9.34167 21.1917 7.54167 19.8374 6.125 17.812C4.70833 15.7874 4 13.55 4 11.1V6.37502C4 5.95836 4.121 5.58336 4.363 5.25002C4.60433 4.91669 4.91667 4.67502 5.3 4.52502L11.3 2.27502C11.5333 2.19169 11.7667 2.15002 12 2.15002C12.2333 2.15002 12.4667 2.19169 12.7 2.27502L18.7 4.52502C19.0833 4.67502 19.396 4.91669 19.638 5.25002C19.8793 5.58336 20 5.95836 20 6.37502V11.1C20 13.55 19.2917 15.7874 17.875 17.812C16.4583 19.8374 14.6583 21.1917 12.475 21.875C12.3917 21.9084 12.2333 21.925 12 21.925Z" fill="#788490"/>
</svg>
