<svg width="24" height="24" viewBox="0 0 24 24" fill="none" xmlns="http://www.w3.org/2000/svg">
<path d="M6.00001 20C5.71668 20 5.47901 19.904 5.28701 19.712C5.09568 19.5207 5.00001 19.2834 5.00001 19C5.00001 18.7167 5.09568 18.4794 5.28701 18.288C5.47901 18.096 5.71668 18 6.00001 18H18C18.2833 18 18.5207 18.096 18.712 18.288C18.904 18.4794 19 18.7167 19 19C19 19.2834 18.904 19.5207 18.712 19.712C18.5207 19.904 18.2833 20 18 20H6.00001ZM9.55001 15.575C9.41668 15.575 9.29168 15.554 9.17501 15.512C9.05835 15.4707 8.95001 15.4 8.85001 15.3L4.60001 11.05C4.41668 10.8667 4.32501 10.625 4.32501 10.325C4.32501 10.025 4.41668 9.78338 4.60001 9.60005C4.78335 9.41672 5.01668 9.32505 5.30001 9.32505C5.58335 9.32505 5.81668 9.41672 6.00001 9.60005L9.55001 13.15L18 4.70005C18.1833 4.51672 18.421 4.42505 18.713 4.42505C19.0043 4.42505 19.2417 4.51672 19.425 4.70005C19.6083 4.88338 19.7 5.12072 19.7 5.41205C19.7 5.70405 19.6083 5.94172 19.425 6.12505L10.25 15.3C10.15 15.4 10.0417 15.4707 9.92501 15.512C9.80835 15.554 9.68335 15.575 9.55001 15.575Z" fill="#788490"/>
</svg>
