<svg width="24" height="24" viewBox="0 0 24 24" fill="none" xmlns="http://www.w3.org/2000/svg">
<path d="M6.7 19.3L3.95 18.7C3.7 18.65 3.5 18.5206 3.35 18.312C3.2 18.104 3.14166 17.875 3.175 17.625L3.45 14.8L1.575 12.65C1.40833 12.4666 1.325 12.25 1.325 12C1.325 11.75 1.40833 11.5333 1.575 11.35L3.45 9.19996L3.175 6.37496C3.14166 6.12496 3.2 5.89596 3.35 5.68796C3.5 5.4793 3.7 5.34996 3.95 5.29996L6.7 4.69996L8.15 2.24996C8.28333 2.0333 8.46666 1.89163 8.7 1.82496C8.93333 1.7583 9.16666 1.76663 9.4 1.84996L12 2.94996L14.6 1.84996C14.8333 1.76663 15.0667 1.7583 15.3 1.82496C15.5333 1.89163 15.7167 2.0333 15.85 2.24996L17.3 4.69996L20.05 5.29996C20.3 5.34996 20.5 5.4793 20.65 5.68796C20.8 5.89596 20.8583 6.12496 20.825 6.37496L20.55 9.19996L22.425 11.35C22.5917 11.5333 22.675 11.75 22.675 12C22.675 12.25 22.5917 12.4666 22.425 12.65L20.55 14.8L20.825 17.625C20.8583 17.875 20.8 18.104 20.65 18.312C20.5 18.5206 20.3 18.65 20.05 18.7L17.3 19.3L15.85 21.75C15.7167 21.9666 15.5333 22.1083 15.3 22.175C15.0667 22.2416 14.8333 22.2333 14.6 22.15L12 21.05L9.4 22.15C9.16666 22.2333 8.93333 22.2416 8.7 22.175C8.46666 22.1083 8.28333 21.9666 8.15 21.75L6.7 19.3ZM10.25 14.85C10.4333 15.0333 10.6667 15.125 10.95 15.125C11.2333 15.125 11.4667 15.0333 11.65 14.85L15.9 10.6C16.1 10.4 16.2 10.1623 16.2 9.88696C16.2 9.6123 16.1 9.37496 15.9 9.17496C15.7 8.97496 15.4627 8.87496 15.188 8.87496C14.9127 8.87496 14.675 8.97496 14.475 9.17496L10.95 12.7L9.5 11.275C9.3 11.0916 9.06266 11.004 8.788 11.012C8.51266 11.0206 8.28333 11.1166 8.1 11.3C7.91666 11.4833 7.825 11.7166 7.825 12C7.825 12.2833 7.91666 12.5166 8.1 12.7L10.25 14.85Z" fill="#788490"/>
</svg>
