<svg width="24" height="24" viewBox="0 0 24 24" fill="none" xmlns="http://www.w3.org/2000/svg">
<path d="M6 22C5.45 22 4.97933 21.8043 4.588 21.413C4.196 21.021 4 20.55 4 20V8.825C4 8.55833 4.05 8.304 4.15 8.062C4.25 7.82067 4.39167 7.60833 4.575 7.425L9.425 2.575C9.60833 2.39167 9.82067 2.25 10.062 2.15C10.304 2.05 10.5583 2 10.825 2H18C18.55 2 19.021 2.19567 19.413 2.587C19.8043 2.979 20 3.45 20 4V20C20 20.55 19.8043 21.021 19.413 21.413C19.021 21.8043 18.55 22 18 22H6ZM12 16.575C12.1333 16.575 12.2583 16.554 12.375 16.512C12.4917 16.4707 12.6 16.4 12.7 16.3L15.325 13.675C15.5083 13.4917 15.6 13.2667 15.6 13C15.6 12.7333 15.5 12.5 15.3 12.3C15.1167 12.1167 14.8833 12.0207 14.6 12.012C14.3167 12.004 14.0833 12.1 13.9 12.3L13 13.15V10C13 9.71667 12.9043 9.479 12.713 9.287C12.521 9.09567 12.2833 9 12 9C11.7167 9 11.4793 9.09567 11.288 9.287C11.096 9.479 11 9.71667 11 10V13.15L10.1 12.275C9.9 12.0917 9.66667 12 9.4 12C9.13333 12 8.9 12.1 8.7 12.3C8.51667 12.4833 8.425 12.7167 8.425 13C8.425 13.2833 8.51667 13.5167 8.7 13.7L11.3 16.3C11.4 16.4 11.5083 16.4707 11.625 16.512C11.7417 16.554 11.8667 16.575 12 16.575Z" fill="#788490"/>
</svg>
